<?xml version="1.0" encoding="UTF-8" standalone="no"?><!-- Created with Inkscape (http://www.inkscape.org/) -->

<svg xmlns:cc="http://creativecommons.org/ns#" xmlns:dc="http://purl.org/dc/elements/1.1/"
    xmlns:inkscape="http://www.inkscape.org/namespaces/inkscape"
    xmlns:rdf="http://www.w3.org/1999/02/22-rdf-syntax-ns#"
    xmlns:sodipodi="http://sodipodi.sourceforge.net/DTD/sodipodi-0.dtd" height="1200" id="svg2"
    version="1.1" viewBox="0 0 1200 1200" width="1200" xmlns="http://www.w3.org/2000/svg"
    inkscape:version="0.91 r13725" sodipodi:docname="app_icon_inkscape.svg">
    <defs id="defs4" />
    <sodipodi:namedview bordercolor="#666666" borderopacity="1.0" id="base" pagecolor="#ffffff"
        showgrid="false" units="px" width="1000px" inkscape:current-layer="layer1"
        inkscape:cx="659.24752" inkscape:cy="770.48457" inkscape:document-units="px"
        inkscape:pageopacity="0.0" inkscape:pageshadow="2" inkscape:window-height="1056"
        inkscape:window-maximized="1" inkscape:window-width="1855" inkscape:window-x="65"
        inkscape:window-y="24" inkscape:zoom="1.4142136" />
    <metadata id="metadata7">
        <rdf:RDF>
            <cc:Work rdf:about="">
                <dc:format>image/svg+xml</dc:format>
                <dc:type rdf:resource="http://purl.org/dc/dcmitype/StillImage" />
                <dc:title />
            </cc:Work>
        </rdf:RDF>
    </metadata>
    <g id="layer1" transform="translate(0,147.6378)" inkscape:groupmode="layer"
        inkscape:label="Layer 1">
        <rect style="fill:#ff5722;fill-opacity:1" height="1000" id="rect3336" width="165.5" x="200"
            y="-47.637798" />
        <path style="fill:#ffc400;fill-opacity:1"
            d="m 901,-47.637798 c 27.7,0 50,22.3 50,49.9999985 L 951,902.3622 c 0,27.7 -22.3,50 -50,50 l -536,0 0,-1000 z"
            id="rect3368" inkscape:connector-curvature="0" sodipodi:nodetypes="ssssccs" />
        <path style="fill:#f2f2f2;fill-opacity:1"
            d="m 667,-47.6378 0,240 82.5,-45 82.5,45 0,-240 -165,0 z" id="rect3372"
            inkscape:connector-curvature="0" />
        <path style="fill:#e6e6e6;fill-opacity:1"
            d="M 655.5,252.3622 A 150.9589,149.99999 0 0 0 509.46543,365.10829 124.5411,123.75 0 0 0 504.54048,364.8622 124.5411,123.75 0 0 0 380,488.6122 124.5411,123.75 0 0 0 474.49377,608.5497 c -1.28717,92.67378 6.94378,190.84975 24.72064,212.92969 16.5766,20.58914 86.431,30.88281 156.28559,30.88281 l 0,-600 z"
            id="path3881" inkscape:connector-curvature="0" />
        <path style="fill:#f2f2f2;fill-opacity:1"
            d="m 655,252.36219 a 150.68493,149.99999 0 0 1 145.76953,112.74609 124.31507,123.75 0 0 1 4.91602,-0.24609 124.31507,123.75 0 0 1 124.31445,123.75 124.31507,123.75 0 0 1 -94.32227,119.9375 c 1.28483,92.67378 -6.93118,190.84975 -24.67578,212.92969 C 794.45543,842.06852 724.72781,852.3622 655,852.3622 l 0,-600.00001 z"
            id="path3881-5" inkscape:connector-curvature="0" />
    </g>
</svg>
